<svg width="25" height="25" viewBox="0 0 25 25" fill="none" xmlns="http://www.w3.org/2000/svg">
<path d="M11.9 1.44724C7.12 1.75724 3.5 5.94724 3.5 10.7372V17.4272C3.5 19.0872 4.84 20.4272 6.5 20.4272H7.5C8.6 20.4272 9.5 19.5272 9.5 18.4272V14.4272C9.5 13.3272 8.6 12.4272 7.5 12.4272H5.5V10.7172C5.5 6.87724 8.46 3.53724 12.29 3.42724C16.26 3.31724 19.5 6.48724 19.5 10.4272V12.4272H17.5C16.4 12.4272 15.5 13.3272 15.5 14.4272V18.4272C15.5 19.5272 16.4 20.4272 17.5 20.4272H19.5V21.4272H13.5C12.95 21.4272 12.5 21.8772 12.5 22.4272C12.5 22.9772 12.95 23.4272 13.5 23.4272H18.5C20.16 23.4272 21.5 22.0872 21.5 20.4272V10.4272C21.5 5.25724 17.14 1.10724 11.9 1.44724Z" fill="white"/>
</svg>
