<svg width="24" height="25" viewBox="0 0 24 25" fill="none" xmlns="http://www.w3.org/2000/svg">
<path d="M21 2.70995C20.87 2.70995 20.74 2.75995 20.65 2.85995L19.86 3.64995C19.66 3.84995 19.35 3.84995 19.15 3.64995L18.36 2.85995C18.16 2.65995 17.85 2.65995 17.65 2.85995L16.86 3.64995C16.66 3.84995 16.35 3.84995 16.15 3.64995L15.36 2.85995C15.16 2.65995 14.85 2.65995 14.65 2.85995L13.86 3.64995C13.66 3.84995 13.35 3.84995 13.15 3.64995L12.36 2.85995C12.16 2.65995 11.85 2.65995 11.65 2.85995L10.86 3.64995C10.66 3.84995 10.35 3.84995 10.15 3.64995L9.35 2.84995C9.15 2.64995 8.84 2.64995 8.64 2.84995L7.85 3.64995C7.65 3.84995 7.34 3.84995 7.14 3.64995L6.35 2.84995C6.15 2.64995 5.84 2.64995 5.64 2.84995L4.85 3.64995C4.65 3.84995 4.34 3.84995 4.14 3.64995L3.35 2.84995C3.26 2.75995 3.13 2.70995 3 2.70995V22.2999C3.13 22.2999 3.26 22.25 3.35 22.15L4.14 21.36C4.34 21.16 4.65 21.16 4.85 21.36L5.64 22.15C5.84 22.35 6.15 22.35 6.35 22.15L7.14 21.36C7.34 21.16 7.65 21.16 7.85 21.36L8.64 22.15C8.84 22.35 9.15 22.35 9.35 22.15L10.14 21.36C10.34 21.16 10.65 21.16 10.85 21.36L11.64 22.15C11.84 22.35 12.15 22.35 12.35 22.15L13.14 21.36C13.34 21.16 13.65 21.16 13.85 21.36L14.64 22.15C14.84 22.35 15.15 22.35 15.35 22.15L16.14 21.36C16.34 21.16 16.65 21.16 16.85 21.36L17.64 22.15C17.84 22.35 18.15 22.35 18.35 22.15L19.14 21.36C19.34 21.16 19.65 21.16 19.85 21.36L20.64 22.15C20.74 22.25 20.87 22.2999 20.99 22.2999V2.70995H21ZM17 17.5H7C6.45 17.5 6 17.05 6 16.5C6 15.95 6.45 15.5 7 15.5H17C17.55 15.5 18 15.95 18 16.5C18 17.05 17.55 17.5 17 17.5ZM17 13.5H7C6.45 13.5 6 13.05 6 12.5C6 11.95 6.45 11.5 7 11.5H17C17.55 11.5 18 11.95 18 12.5C18 13.05 17.55 13.5 17 13.5ZM17 9.49995H7C6.45 9.49995 6 9.04995 6 8.49995C6 7.94995 6.45 7.49995 7 7.49995H17C17.55 7.49995 18 7.94995 18 8.49995C18 9.04995 17.55 9.49995 17 9.49995Z" fill="#FFFFFF"/>
</svg>
